HIERARCHY
ROOT Hips
{
  OFFSET -1.56614 0.00 -1.85809
  CHANNELS 6 Xposition Yposition Zposition Zrotation Xrotation Yrotation
  JOINT LHipJoint
  {
    OFFSET 0 0 0
    CHANNELS 3 Zrotation Xrotation Yrotation
    JOINT LeftUpLeg
    {
      OFFSET 1.8 -1.4 0.085
      CHANNELS 3 Zrotation Xrotation Yrotation
      JOINT LeftLeg
      {
        OFFSET 2.215 -6 0
        CHANNELS 3 Zrotation Xrotation Yrotation
        JOINT LeftFoot
        {
          OFFSET 2.5 -6.9 0
          CHANNELS 3 Zrotation Xrotation Yrotation
          JOINT LeftToeBase
          {
            OFFSET 0.2 -0.5 1.95
            CHANNELS 3 Zrotation Xrotation Yrotation
            End Site
            {
              OFFSET 0 0 1
            }
          }
        }
      }
    }
  }
  JOINT RHipJoint
  {
    OFFSET 0 0 0
    CHANNELS 3 Zrotation Xrotation Yrotation
    JOINT RightUpLeg
    {
      OFFSET -1.8 -1.4 0.085
      CHANNELS 3 Zrotation Xrotation Yrotation
      JOINT RightLeg
      {
        OFFSET -2.215 -6 0
        CHANNELS 3 Zrotation Xrotation Yrotation
        JOINT RightFoot
        {
          OFFSET -2.5 -6.9 0
          CHANNELS 3 Zrotation Xrotation Yrotation
          JOINT RightToeBase
          {
            OFFSET -0.2 -0.5 1.95
            CHANNELS 3 Zrotation Xrotation Yrotation
            End Site
            {
              OFFSET 0 0 1
            }
          }
        }
      }
    }
  }
  JOINT LowerBack
  {
    OFFSET 0 0 0
    CHANNELS 3 Zrotation Xrotation Yrotation
    JOINT Spine
    {
      OFFSET -0.087 1.94 -0.2889
      CHANNELS 3 Zrotation Xrotation Yrotation
      JOINT Spine1
      {
        OFFSET 0 1.95 0.06
        CHANNELS 3 Zrotation Xrotation Yrotation
        JOINT Neck
        {
          OFFSET 0 0 0
          CHANNELS 3 Zrotation Xrotation Yrotation
          JOINT Neck1
          {
            OFFSET 0 1.6 0.34
            CHANNELS 3 Zrotation Xrotation Yrotation
            JOINT Head
            {
              OFFSET 0 1.667 -0.24
              CHANNELS 3 Zrotation Xrotation Yrotation
              End Site
              {
                OFFSET 0 1.686 -0.12
              }
            }
          }
        }
        JOINT LeftShoulder
        {
          OFFSET 0 0 0
          CHANNELS 3 Zrotation Xrotation Yrotation
          JOINT LeftArm
          {
            OFFSET 2.7 1.55 -0.73
            CHANNELS 3 Zrotation Xrotation Yrotation
            JOINT LeftForeArm
            {
              OFFSET 5.45 0 0
              CHANNELS 3 Zrotation Xrotation Yrotation
              JOINT LeftHand
              {
                OFFSET 3.45 0 0
                CHANNELS 3 Zrotation Xrotation Yrotation
                JOINT LeftFingerBase
                {
                  OFFSET 0 0 0
                  CHANNELS 3 Zrotation Xrotation Yrotation
                  JOINT LeftHandIndex1
                  {
                    OFFSET 0.75 0 0
                    CHANNELS 3 Zrotation Xrotation Yrotation
                    End Site
                    {
                      OFFSET 0.6 0 0
                    }
                  }
                }
                JOINT LThumb
                {
                  OFFSET 0 0 0
                  CHANNELS 3 Zrotation Xrotation Yrotation
                  End Site
                  {
                    OFFSET 0.59 0 0.59
                  }
                }
              }
            }
          }
        }
        JOINT RightShoulder
        {
          OFFSET 0 0 0
          CHANNELS 3 Zrotation Xrotation Yrotation
          JOINT RightArm
          {
            OFFSET -2.7 1.55 -0.73
            CHANNELS 3 Zrotation Xrotation Yrotation
            JOINT RightForeArm
            {
              OFFSET -5.45 0 0
              CHANNELS 3 Zrotation Xrotation Yrotation
              JOINT RightHand
              {
                OFFSET -3.45 0 0
                CHANNELS 3 Zrotation Xrotation Yrotation
                JOINT RightFingerBase
                {
                  OFFSET 0 0 0
                  CHANNELS 3 Zrotation Xrotation Yrotation
                  JOINT RightHandIndex1
                  {
                    OFFSET -0.75 0 0
                    CHANNELS 3 Zrotation Xrotation Yrotation
                    End Site
                    {
                      OFFSET -0.6 0 0
                    }
                  }
                }
                JOINT RThumb
                {
                  OFFSET 0 0 0
                  CHANNELS 3 Zrotation Xrotation Yrotation
                  End Site
                  {
                    OFFSET -0.59 0 0.59
                  }
                }
              }
            }
          }
        }
      }
    }
  }
}
MOTION
Frames:	9
Frame Time:	0.00833333
0.54302 18.1312 -0.697804 0.00307023 3.48576e-006 0.000849995 6.39863e-020 0 -0 -19.5464 1.42164 1.52636 -0.0515745 0.60631 -0.78943 -0.925461 -2.03924 -0.779281 3.27537e-016 3.10601e-018 1.55301e-018 6.39863e-020 0 -0 21.0496 2.93579 2.41459 -0.251267 -0.927647 -2.96777 1.06052 -1.99065 0.573884 -3.76377e-016 7.76503e-019 7.76503e-019 6.39863e-020 0 -0 -1.67664e-005 -0.00159746 -0.000240028 0.00081891 0.0025825 -0.0150742 -0.000280581 -16 -0.00101794 -0.00140014 21 0.003907 -0.00174535 10.9975 -0.00145101 0.376842 0.00796434 3.44879 -21.2078 -46.7717 -23.1945 -3.13236 50.8736 -0.00269034 2.62793 -1.70691 0.534954 4.10423e-007 1.58257e-007 -2.68682e-010 -6.08778e-016 1.49089e-016 -1.59028e-015 3.23025e-016 4.96962e-017 -3.18055e-015 -0.341825 4.21796e-010 -3.50353 22.1484 -25.6386 12.9033 -1.3367 28.182 -0.000485873 1.2759 -0.462356 -0.897613 -1.46931e-006 8.05909e-008 -4.70928e-008 -1.45361e-015 -2.98177e-016 -1.59028e-015 2.47238e-015 3.97569e-016 -0 
0.543314 18.1299 -0.697855 0.00307021 0.000356366 0.00432154 -7.362e-019 9.70628e-020 1.55301e-018 -19.5441 1.44553 1.55363 -0.0746414 0.587876 -0.806159 -0.881068 -2.15339 -0.824663 -1.27083e-015 0 6.21202e-018 -7.362e-019 9.70628e-020 1.55301e-018 21.0535 2.8971 2.42775 -0.254147 -0.861297 -3.01461 1.05851 -2.02754 0.587373 1.7274e-015 -4.65902e-018 -6.21202e-018 -7.362e-019 9.70628e-020 1.55301e-018 0.00017606 -0.00901391 -0.001069 0.00447803 0.0137285 -0.0150742 -0.000280581 -16 -0.00101794 -0.00140014 21 0.003907 -0.00956949 10.9871 -0.00771349 0.376842 0.00796434 3.44879 -21.221 -46.7671 -23.2007 -3.12694 50.8878 -0.00269115 2.62806 -1.70691 0.525398 4.10423e-007 1.58257e-007 -2.68677e-010 -6.70898e-016 -1.98785e-016 -0 1.0312e-015 9.93923e-017 1.59028e-015 -0.341825 4.21796e-010 -3.50353 22.1256 -25.5619 13.1002 -1.33128 28.1508 -0.000485731 1.15182 -0.496816 -0.729886 -1.46931e-006 8.05909e-008 -4.70928e-008 -3.95085e-015 -1.19271e-015 -7.95139e-016 2.73329e-015 -3.97569e-016 7.95139e-016 
0.543611 18.1285 -0.697906 0.00307013 0.000763477 0.00780455 -7.03326e-020 0 -0 -19.5413 1.4697 1.58166 -0.0985936 0.569193 -0.823364 -0.83605 -2.26903 -0.870674 -1.78008e-015 4.96962e-017 1.2424e-017 -7.03326e-020 0 -0 21.0575 2.85778 2.44114 -0.256966 -0.793951 -3.0621 1.05639 -2.06474 0.600978 -1.18289e-014 3.10601e-018 6.21202e-018 -7.03326e-020 0 -0 0.000410276 -0.0165952 -0.001877 0.00819849 0.0250051 -0.0150742 -0.000280581 -16 -0.00101794 -0.00140014 21 0.003907 -0.0175306 10.9768 -0.0140489 0.376842 0.00796434 3.44879 -21.2346 -46.7624 -23.207 -3.12137 50.9022 -0.00269199 2.62805 -1.70691 0.515677 4.10423e-007 1.58257e-007 -2.68679e-010 -4.96962e-017 -1.49089e-016 -3.18055e-015 5.71506e-016 -4.96962e-017 -0 -0.341825 4.21796e-010 -3.50353 22.1022 -25.4844 13.2986 -1.32581 28.1192 -0.000485588 1.02685 -0.531621 -0.560923 -1.46931e-006 8.05909e-008 -4.70928e-008 8.54774e-015 -1.98785e-016 -0 -8.49804e-015 3.97569e-016 3.18055e-015 
0.543885 18.1273 -0.697964 0.00307012 0.000574058 0.0111616 -8.43423e-019 -1.94126e-019 -0 -19.5425 1.49082 1.60126 -0.112935 0.553255 -0.835329 -0.800048 -2.36815 -0.909889 -5.25731e-015 -4.96962e-017 3.72721e-017 -8.43423e-019 -1.94126e-019 -0 21.0605 2.82545 2.45184 -0.259181 -0.737617 -3.10252 1.05558 -2.09842 0.613318 -1.54235e-015 -1.2424e-017 -1.86361e-017 -8.43423e-019 -1.94126e-019 -0 0.000186628 -0.0223633 -0.00291566 0.0112441 0.0348455 -0.0150742 -0.000280581 -16 -0.00101794 -0.00140014 21 0.003907 -0.0240127 10.9668 -0.0195767 0.376842 0.00796434 3.44879 -21.2452 -46.7582 -23.2123 -3.11737 50.9136 -0.00269265 2.62959 -1.70691 0.507776 4.10423e-007 1.58257e-007 -2.68677e-010 -4.5969e-016 -1.49089e-016 1.59028e-015 7.0817e-016 1.49089e-016 -0 -0.341825 4.21796e-010 -3.50353 22.0806 -25.4144 13.4771 -1.32094 28.0926 -0.000485468 0.914019 -0.562605 -0.405526 -1.46931e-006 8.05909e-008 -4.70928e-008 4.69629e-015 -9.93923e-017 -1.59028e-015 -4.13721e-015 -9.93923e-017 -0 
0.544113 18.1265 -0.698035 0.00337246 -0.000808473 0.0143358 -7.29227e-019 0 -6.21202e-018 -19.552 1.50548 1.60287 -0.10671 0.543087 -0.836119 -0.782827 -2.43299 -0.934948 -2.90431e-015 4.96962e-017 -0 -7.29227e-019 0 -6.21202e-018 21.0615 2.80767 2.45694 -0.260321 -0.704226 -3.12832 1.05755 -2.125 0.623094 -8.86471e-015 0 -0 -7.29227e-019 0 -6.21202e-018 -0.00107816 -0.0244327 -0.00447264 0.0129144 0.0417273 -0.0150742 -0.000280581 -16 -0.00101794 -0.00140014 21 0.003907 -0.0273842 10.9576 -0.0234552 0.376842 0.00796433 3.44934 -21.2499 -46.755 -23.2159 -3.11653 50.9186 -0.00269293 2.63442 -1.70691 0.503654 4.10423e-007 1.58257e-007 -2.68677e-010 -7.45443e-017 0 -1.59028e-015 -2.60905e-016 4.96962e-017 -0 -0.341825 4.21796e-010 -3.50353 22.0639 -25.3601 13.6149 -1.31732 28.0766 -0.000485395 0.825846 -0.585643 -0.277514 -1.46931e-006 8.05909e-008 -4.70928e-008 2.60905e-016 -9.93923e-016 -0 -1.81391e-015 0 1.59028e-015 
0.544273 18.1259 -0.698123 0.00504949 -0.00284259 0.0185022 3.80479e-019 -7.76503e-019 6.21202e-018 -19.5759 1.51114 1.57684 -0.0683256 0.540522 -0.819824 -0.791924 -2.45923 -0.943665 -2.3101e-017 9.93923e-017 2.48481e-017 3.80479e-019 -7.76503e-019 6.21202e-018 21.0594 2.80639 2.45557 -0.260372 -0.697973 -3.13821 1.06431 -2.14632 0.630978 1.61028e-015 0 -0 3.80479e-019 -7.76503e-019 6.21202e-018 -0.00489501 -0.0233419 -0.00721193 0.0134338 0.0456337 -0.0150742 -0.000280581 -16 -0.00101794 -0.00140014 21 0.003907 -0.0266954 10.9494 -0.0258894 0.376842 0.00796431 3.45173 -21.2479 -46.7535 -23.2185 -3.11825 50.9185 -0.00269293 2.64382 -1.70691 0.503774 4.10423e-007 1.58257e-007 -2.68682e-010 -1.01877e-015 1.98785e-016 -4.77083e-015 4.96962e-016 2.48481e-016 -3.18055e-015 -0.341825 4.21796e-010 -3.50353 22.0523 -25.3215 13.7105 -1.31501 28.0743 -0.000485385 0.761467 -0.599564 -0.168437 -1.46931e-006 8.05909e-008 -4.70928e-008 -1.76421e-015 -2.98177e-016 -0 1.70209e-015 -2.98177e-016 1.59028e-015 
0.544396 18.1255 -0.69822 0.00680205 -0.00569026 0.0226443 1.23073e-018 0 -0 -19.6064 1.5119 1.53691 -0.0139905 0.542301 -0.7949 -0.815215 -2.46026 -0.941933 -3.99142e-015 0 -0 1.23073e-018 0 -0 21.0556 2.81582 2.45006 -0.259695 -0.708706 -3.1374 1.07327 -2.16266 0.637067 -1.54378e-016 0 -0 1.23073e-018 0 -0 -0.00960361 -0.0196243 -0.0103873 0.0129786 0.0473976 -0.0150742 -0.000280581 -16 -0.00101794 -0.00140014 21 0.003907 -0.0236675 10.9419 -0.0271493 0.376841 0.00796429 3.45414 -21.2415 -46.7528 -23.2199 -3.12221 50.914 -0.00269267 2.65571 -1.70691 0.506671 4.10423e-007 1.58257e-007 -2.68684e-010 1.86361e-016 1.49089e-016 -6.36111e-015 4.84538e-016 1.98785e-016 -4.77083e-015 -0.341825 4.21796e-010 -3.50353 22.0445 -25.2944 13.7766 -1.31362 28.08 -0.000485411 0.714764 -0.607628 -0.0783999 -1.46931e-006 8.05909e-008 -4.70928e-008 -4.65902e-015 -2.98177e-016 1.59028e-015 1.19271e-015 -1.98785e-016 -1.59028e-015 
0.54453 18.1253 -0.698319 0.00773129 -0.010001 0.0248544 -1.96856e-018 3.10601e-018 9.31803e-018 -19.6316 1.51332 1.50277 0.0328394 0.544194 -0.773445 -0.836198 -2.45035 -0.936299 5.01834e-015 -4.96962e-017 -0 -1.96856e-018 3.10601e-018 9.31803e-018 21.0524 2.82968 2.44301 -0.258612 -0.724715 -3.13103 1.08051 -2.17243 0.640783 -2.40008e-015 1.2424e-017 -6.21202e-018 -1.96856e-018 3.10601e-018 9.31803e-018 -0.0124853 -0.0131545 -0.0127918 0.0114627 0.0476603 -0.0150742 -0.000280581 -16 -0.00101794 -0.00140014 21 0.003907 -0.0205161 10.9345 -0.0272375 0.376841 0.00796428 3.45627 -21.2331 -46.7518 -23.2188 -3.12878 50.9042 -0.0026921 2.6673 -1.70691 0.510794 4.10423e-007 1.58257e-007 -2.68679e-010 -1.61513e-016 -4.96962e-017 -0 1.11816e-016 9.93923e-017 -1.59028e-015 -0.341825 4.21796e-010 -3.50353 22.0389 -25.2757 13.8239 -1.31274 28.0863 -0.000485439 0.681921 -0.61343 -0.0157231 -1.46931e-006 8.05909e-008 -4.70928e-008 -1.04362e-015 -1.2921e-015 1.59028e-015 -4.84538e-016 -1.98785e-016 1.59028e-015 
0.544722 18.1253 -0.69841 0.00692532 -0.0164615 0.0232101 1.25348e-018 3.10601e-018 6.21202e-018 -19.64 1.52085 1.49381 0.0490582 0.542108 -0.767393 -0.838661 -2.44291 -0.932972 3.96618e-015 0 -4.96962e-017 1.25348e-018 3.10601e-018 6.21202e-018 21.0516 2.84197 2.43687 -0.25741 -0.734699 -3.1239 1.08205 -2.17377 0.641448 8.64038e-015 -2.48481e-017 -1.86361e-017 1.25348e-018 3.10601e-018 6.21202e-018 -0.0107826 -0.00364983 -0.0132167 0.00874279 0.0468945 -0.0141846 -0.00028058 -15.9999 -0.00101794 -0.00141763 21.0001 0.003907 -0.0193211 10.9266 -0.0261994 0.37674 0.00796426 3.45781 -21.2246 -46.7494 -23.214 -3.13848 50.8878 -0.00269116 2.6759 -1.70678 0.514626 4.10423e-007 1.58257e-007 -2.68677e-010 -5.8393e-016 0 -1.59028e-015 -2.48481e-016 1.49089e-016 -0 -0.341825 4.21796e-010 -3.50353 22.0343 -25.2624 13.8621 -1.31199 28.086 -0.000485438 0.659687 -0.620412 0.0105157 -1.46931e-006 8.05909e-008 -4.70928e-008 1.86361e-016 4.96962e-016 -0 4.22417e-016 -1.98785e-016 -0 
